{"title":"Robozuna series 01 (October 2018)","magnet":"magnet:?xt=urn:btih:f6e67b86eaf178242d05ea9426a5c4a4d802aae7&dn=Robozuna+series+01+%28October+2018%29&tr=udp%3A%2F%2Ftracker.leechers-paradise.org%3A6969&tr=udp%3A%2F%2Fzer0day.ch%3A1337&tr=udp%3A%2F%2Fopen.demonii.com%3A1337&tr=udp%3A%2F%2Ftracker.coppersurfer.tk%3A6969&tr=udp%3A%2F%2Fexodus.desync.com%3A6969","uploader":"moronorless","categoryP":"video","categoryS":"tv_shows","size":"1915886650","seeders":"0","leechers":"0","description":"Netflix Robozuna series 01 (October 2018)\r\n\r\nA boy and his homemade robot attempt to free their oppressed nation from an evil empire and its robot centurions.\r\n\r\nIMDB ID: tt8454808\r\nTags: Adventure, Animation, Science-Fiction, Children, CGI-Animation\r\n <a href=\"\nhttps://www.thetvdb.com/series/robozuna\" rel=\"nofollow\" target=\"_NEW\">\nhttps://www.thetvdb.com/series/robozuna</a>\r\n\r\ncompressed XviD-AFG files using &quot;Any Video Converter&quot; v 3.2.3\r\n\r\n\r\nVideo Information:\r\nGeneral\r\nFormat                                   : AVI\r\nFormat/Info                              : Audio Video Interleave\r\nFile size                                : 183 MiB\r\nDuration                                 : 22 min 58 s\r\nOverall bit rate mode                    : Variable\r\nOverall bit rate                         : 1 111 kb/s\r\nWriting application                      : MEncoder Sherpya-SVN-r32492-4.2.5\r\nWriting library                          : MPlayer\r\n\r\nVideo\r\nID                                       : 0\r\nFormat                                   : MPEG-4 Visual\r\nFormat profile                           : Simple@L3\r\nFormat settings, BVOP                    : No\r\nFormat settings, QPel                    : No\r\nFormat settings, GMC                     : No warppoints\r\nFormat settings, Matrix                  : Default (H.263)\r\nCodec ID                                 : XVID\r\nCodec ID/Hint                            : XviD\r\nDuration                                 : 22 min 58 s\r\nBit rate                                 : 979 kb/s\r\nWidth                                    : 640 pixels\r\nHeight                                   : 360 pixels\r\nDisplay aspect ratio                     : 16:9\r\nFrame rate                               : 25.000 FPS\r\nColor space                              : YUV\r\nChroma subsampling                       : 4:2:0\r\nBit depth                                : 8 bits\r\nScan type                                : Progressive\r\nCompression mode                         : Lossy\r\nBits/(Pixel*Frame)                       : 0.170\r\nStream size                              : 161 MiB (88%)\r\nWriting library                          : XviD 1.2.1 (UTC 2008-12-04)\r\n\r\nAudio\r\nID                                       : 1\r\nFormat                                   : MPEG Audio\r\nFormat version                           : Version 1\r\nFormat profile                           : Layer 3\r\nFormat settings                          : Joint stereo\r\nCodec ID                                 : 55\r\nCodec ID/Hint                            : MP3\r\nDuration                                 : 22 min 58 s\r\nBit rate mode                            : Variable\r\nBit rate                                 : 119 kb/s\r\nChannel(s)                               : 2 channels\r\nSampling rate                            : 44.1 kHz\r\nCompression mode                         : Lossy\r\nStream size                              : 19.6 MiB (11%)\r\nAlignment                                : Aligned on interleaves\r\nInterleave, duration                     : 26  ms (0.65 video frame)\r\nInterleave, preload duration             : 139  ms\r\nWriting library                          : LAME3.98.4","last_updated":"2018-10-27T12:50:05.946Z","parsed":{"xt":"urn:btih:f6e67b86eaf178242d05ea9426a5c4a4d802aae7","dn":"Robozuna series 01 (October 2018)","tr":["udp://exodus.desync.com:6969","udp://open.demonii.com:1337","udp://tracker.coppersurfer.tk:6969","udp://tracker.leechers-paradise.org:6969","udp://zer0day.ch:1337"],"infoHash":"f6e67b86eaf178242d05ea9426a5c4a4d802aae7","infoHashBuffer":{"type":"Buffer","data":[246,230,123,134,234,241,120,36,45,5,234,148,38,165,196,164,216,2,170,231]},"name":"Robozuna series 01 (October 2018)","announce":["udp://exodus.desync.com:6969","udp://open.demonii.com:1337","udp://tracker.coppersurfer.tk:6969","udp://tracker.leechers-paradise.org:6969","udp://zer0day.ch:1337"],"urlList":[]}}